<svg width="1271" height="1034" viewBox="0 0 1271 1034" fill="none" xmlns="http://www.w3.org/2000/svg">
<rect width="1271" height="1034" fill="white"/>
<g id="bg-intro-desktop 1" clip-path="url(#clip0_0_1)">
<g id="Group" filter="url(#filter0_b_0_1)">
<g id="Vector" filter="url(#filter1_d_0_1)">
<path d="M84.8442 592.015L223.628 730.781C243.01 750.161 269.296 761.048 296.705 761.047H369.767C397.176 761.047 423.462 771.935 442.844 791.315L609.279 957.732C628.66 977.111 654.945 987.999 682.353 988H1084.23C1130.7 988 1168.38 950.33 1168.38 903.861C1168.38 892.811 1166.2 881.87 1161.97 871.661C1157.74 861.453 1151.54 852.177 1143.73 844.364L1054.44 755.086C1042.01 742.652 1042.01 722.491 1054.44 710.054C1057.4 707.097 1060.91 704.751 1064.77 703.151C1068.64 701.55 1072.78 700.727 1076.96 700.727C1094.55 700.727 1108.8 686.47 1108.8 668.883C1108.8 660.438 1105.45 652.337 1099.48 646.366L897.597 444.507C878.215 425.127 851.929 414.24 824.52 414.24H582.223C554.814 414.24 528.528 403.352 509.146 383.972L472.712 347.542C453.33 328.163 427.044 317.276 399.636 317.276H156.606C123.772 317.276 97.1553 343.892 97.1553 376.725C97.1554 384.532 98.6934 392.263 101.681 399.475C104.669 406.688 109.049 413.242 114.57 418.762L144.294 448.485C160.713 464.901 160.714 491.519 144.298 507.935C140.394 511.839 135.759 514.936 130.658 517.049C125.558 519.162 120.091 520.249 114.57 520.249C91.3522 520.249 72.53 539.07 72.53 562.287C72.5299 567.808 73.6174 573.274 75.7303 578.375C77.8432 583.475 80.9401 588.11 84.8442 592.014V592.015Z" fill="#3EDAD8"/>
</g>
<path id="Vector_2" d="M84.8442 592.015L223.628 730.781C243.01 750.161 269.296 761.048 296.705 761.047H369.767C397.176 761.047 423.462 771.935 442.844 791.315L609.279 957.732C628.66 977.111 654.945 987.999 682.353 988H1084.23C1130.7 988 1168.38 950.33 1168.38 903.861C1168.38 892.811 1166.2 881.87 1161.97 871.661C1157.74 861.453 1151.54 852.177 1143.73 844.364L1054.44 755.086C1042.01 742.652 1042.01 722.491 1054.44 710.054C1057.4 707.097 1060.91 704.751 1064.77 703.151C1068.64 701.55 1072.78 700.727 1076.96 700.727C1094.55 700.727 1108.8 686.47 1108.8 668.883C1108.8 660.438 1105.45 652.337 1099.48 646.366L897.597 444.507C878.215 425.127 851.929 414.24 824.52 414.24H582.223C554.814 414.24 528.528 403.352 509.146 383.972L472.712 347.542C453.33 328.163 427.044 317.276 399.636 317.276H156.606C123.772 317.276 97.1553 343.892 97.1553 376.725C97.1554 384.532 98.6934 392.263 101.681 399.475C104.669 406.688 109.049 413.242 114.57 418.762L144.294 448.485C160.713 464.901 160.714 491.519 144.298 507.935C140.394 511.839 135.759 514.936 130.658 517.049C125.558 519.162 120.091 520.249 114.57 520.249C91.3522 520.249 72.53 539.07 72.53 562.287C72.5299 567.808 73.6174 573.274 75.7303 578.375C77.8432 583.475 80.9401 588.11 84.8442 592.014V592.015Z" fill="#3EDAD8" stroke="#3EDAD8"/>
<path id="Vector_3" fill-rule="evenodd" clip-rule="evenodd" d="M227.468 274.738L366.252 413.505C385.634 432.884 411.92 443.771 439.329 443.771H512.39C539.799 443.771 566.085 454.659 585.467 474.039L751.903 640.456C771.283 659.835 797.568 670.723 824.976 670.724H1226.86C1273.33 670.724 1311 633.054 1311 586.585C1311 575.535 1308.82 564.593 1304.59 554.385C1300.37 544.176 1294.17 534.901 1286.35 527.088L1197.07 437.81C1184.63 425.375 1184.63 405.214 1197.06 392.778C1200.02 389.82 1203.53 387.475 1207.4 385.874C1211.26 384.274 1215.4 383.45 1219.58 383.45C1237.17 383.45 1251.43 369.194 1251.43 351.607C1251.43 343.162 1248.07 335.061 1242.1 329.09L1040.22 127.231C1020.84 107.851 994.552 96.9636 967.143 96.9635H724.846C697.438 96.9634 671.151 86.076 651.769 66.6962L615.335 30.2663C595.954 10.8871 569.668 9.75935e-05 542.259 0H299.229C266.396 0 239.779 26.6161 239.779 59.4485C239.779 67.2557 241.317 74.9864 244.305 82.1992C247.293 89.4121 251.672 95.9657 257.193 101.486L286.918 131.209C303.336 147.624 303.337 174.242 286.921 190.659C283.017 194.563 278.383 197.66 273.282 199.773C268.181 201.886 262.714 202.973 257.193 202.973C233.976 202.973 215.153 221.794 215.153 245.011C215.153 250.531 216.241 255.998 218.354 261.099C220.467 266.199 223.564 270.834 227.468 274.737V274.738Z" fill="url(#paint0_linear_0_1)" stroke="#6EA9D1"/>
</g>
</g>
<defs>
<filter id="filter0_b_0_1" x="68.03" y="-4.5" width="1247.47" height="997" filterUnits="userSpaceOnUse" color-interpolation-filters="sRGB">
<feFlood flood-opacity="0" result="BackgroundImageFix"/>
<feGaussianBlur in="BackgroundImageFix" stdDeviation="2"/>
<feComposite in2="SourceAlpha" operator="in" result="effect1_backgroundBlur_0_1"/>
<feBlend mode="normal" in="SourceGraphic" in2="effect1_backgroundBlur_0_1" result="shape"/>
</filter>
<filter id="filter1_d_0_1" x="-4.47" y="242.276" width="1249.85" height="824.724" filterUnits="userSpaceOnUse" color-interpolation-filters="sRGB">
<feFlood flood-opacity="0" result="BackgroundImageFix"/>
<feColorMatrix in="SourceAlpha" type="matrix" values="0 0 0 0 0 0 0 0 0 0 0 0 0 0 0 0 0 0 127 0" result="hardAlpha"/>
<feOffset dy="2"/>
<feGaussianBlur stdDeviation="38.5"/>
<feColorMatrix type="matrix" values="0 0 0 0 0 0 0 0 0 0 0 0 0 0 0 0 0 0 0.0240111 0"/>
<feBlend mode="normal" in2="BackgroundImageFix" result="effect1_dropShadow_0_1"/>
<feBlend mode="normal" in="SourceGraphic" in2="effect1_dropShadow_0_1" result="shape"/>
</filter>
<linearGradient id="paint0_linear_0_1" x1="215.153" y1="242.447" x2="1190.34" y2="683.874" gradientUnits="userSpaceOnUse">
<stop stop-color="#6EA9D1"/>
<stop offset="1" stop-color="#2AB6D9"/>
</linearGradient>
<clipPath id="clip0_0_1">
<rect width="1271" height="1034" fill="white"/>
</clipPath>
</defs>
</svg>
