<svg width="375" height="423" viewBox="0 0 375 423" fill="none" xmlns="http://www.w3.org/2000/svg">
<rect width="375" height="423" fill="white"/>
<g id="bg-intro-mobile 1" clip-path="url(#clip0_0_1)">
<g id="Group">
<g id="Vector" filter="url(#filter0_d_0_1)">
<path d="M-114.994 135.555L-39.4124 215.401C-29.4913 225.882 -17.694 234.213 -4.69438 239.92C8.30528 245.627 22.2527 248.597 36.3512 248.66L48.1911 248.713C62.2896 248.777 76.237 251.747 89.2367 257.453C102.236 263.16 114.034 271.492 123.955 281.973L204.85 367.433C214.771 377.914 226.569 386.246 239.568 391.953C252.568 397.66 266.515 400.63 280.614 400.693L518.561 401.761C548.087 401.894 572.135 376.947 572.274 346.041C572.34 331.202 566.774 316.945 556.798 306.406L500.35 246.773C492.488 238.467 492.55 225.059 500.488 216.826C504.299 212.873 509.454 210.666 514.819 210.69C525.991 210.74 535.091 201.3 535.144 189.606C535.169 183.991 533.062 178.596 529.288 174.607L413.822 52.6261C403.9 42.1449 392.103 33.813 379.103 28.1063C366.103 22.3996 352.156 19.4298 338.057 19.3666L217.819 18.8268C204.009 18.7647 190.348 15.8559 177.616 10.2664C164.883 4.67693 153.328 -3.48369 143.61 -13.7494C133.893 -24.0156 122.337 -32.1766 109.604 -37.7662C96.8711 -43.3559 83.2097 -46.2648 69.4002 -46.3267L-68.5745 -46.9461C-89.4364 -47.0398 -106.428 -29.4137 -106.526 -7.57684C-106.573 2.90785 -102.639 12.9811 -95.5907 20.4276L-76.7915 40.2863C-66.4122 51.251 -66.4938 68.9508 -76.9733 79.8195C-82.005 85.0379 -88.8099 87.9517 -95.8916 87.9201C-110.643 87.8538 -122.655 100.317 -122.724 115.755C-122.757 123.167 -119.977 130.289 -114.994 135.554L-114.994 135.555Z" fill="#6EA9D1"/>
</g>
<path id="Vector_2" d="M-114.493 135.357L-114.493 135.356L-114.631 135.21C-119.523 130.041 -122.257 123.044 -122.224 115.757C-122.156 100.573 -110.347 88.3552 -95.8938 88.4201C-88.672 88.4523 -81.7373 85.4806 -76.6134 80.1666C-65.9484 69.1054 -65.8654 51.1013 -76.4284 39.9426L-95.2276 20.0838C-102.186 12.7331 -106.072 2.78468 -106.026 -7.5746C-105.929 -29.1571 -89.1413 -46.5385 -68.5767 -46.4461L69.398 -45.8267C83.1385 -45.7651 96.7323 -42.8708 109.403 -37.3084C122.074 -31.746 133.575 -23.6242 143.247 -13.4057C153.01 -3.09231 164.62 5.10748 177.415 10.7242C190.21 16.341 203.938 19.2644 217.816 19.3267L338.055 19.8666C352.085 19.9295 365.965 22.8847 378.902 28.5641C391.84 34.2436 403.582 42.5363 413.459 52.9699L528.925 174.951C532.609 178.844 534.668 184.114 534.644 189.603C534.592 201.043 525.696 210.239 514.821 210.19C509.316 210.165 504.032 212.43 500.128 216.479C492.005 224.904 491.941 238.617 499.987 247.116L556.435 306.75C566.32 317.193 571.84 331.325 571.774 346.039C571.636 376.69 547.792 401.393 518.563 401.261L280.616 400.193C266.586 400.13 252.707 397.175 239.769 391.495C226.832 385.816 215.089 377.523 205.213 367.09L124.318 281.629C114.352 271.1 102.5 262.729 89.4377 256.995C76.3758 251.261 62.3608 248.277 48.1933 248.213L36.3535 248.16C22.3238 248.097 8.44406 245.142 -4.4934 239.462C-17.4309 233.783 -29.1733 225.49 -39.0493 215.057L-114.493 135.357Z" fill="#6EA9D1" stroke="#6EA9D1"/>
<path id="Vector_3" d="M115.081 137.371L115.077 137.366L115.076 137.365C110.184 132.196 107.45 125.199 107.483 117.912C107.551 102.728 119.359 90.51 133.813 90.5749C141.035 90.6072 147.969 87.6355 153.093 82.3215C163.758 71.2603 163.841 53.2562 153.278 42.0974L134.48 22.2387C127.522 14.888 123.635 4.93956 123.682 -5.41972C123.779 -27.0022 140.566 -44.3836 161.131 -44.2913L299.106 -43.6718C312.846 -43.6102 326.44 -40.7159 339.111 -35.1535C351.782 -29.5911 363.282 -21.4693 372.955 -11.2508C382.718 -0.937428 394.327 7.26236 407.122 12.8791C419.917 18.4959 433.646 21.4193 447.524 21.4816L567.762 22.0215C581.792 22.0843 595.672 25.0396 608.61 30.719C621.547 36.3985 633.29 44.6912 643.166 55.1247L758.632 177.106C762.316 180.999 764.376 186.269 764.351 191.758C764.3 203.198 755.403 212.394 744.529 212.345C739.024 212.32 733.739 214.585 729.835 218.634C721.712 227.059 721.648 240.772 729.694 249.271L786.142 308.905C796.028 319.348 801.548 333.48 801.481 348.194C801.344 378.845 777.5 403.547 748.271 403.416L510.324 402.348C496.294 402.285 482.414 399.33 469.477 393.65C456.539 387.971 444.797 379.678 434.921 369.245L354.025 283.784C344.059 273.255 332.207 264.884 319.145 259.15C306.083 253.416 292.068 250.432 277.901 250.368L266.061 250.315C252.031 250.252 238.152 247.297 225.214 241.617C212.277 235.938 200.534 227.645 190.658 217.212L115.082 137.372L115.081 137.371Z" fill="url(#paint0_linear_0_1)" stroke="#3EDAD8"/>
</g>
</g>
<defs>
<filter id="filter0_d_0_1" x="-199.724" y="-121.947" width="848.999" height="602.708" filterUnits="userSpaceOnUse" color-interpolation-filters="sRGB">
<feFlood flood-opacity="0" result="BackgroundImageFix"/>
<feColorMatrix in="SourceAlpha" type="matrix" values="0 0 0 0 0 0 0 0 0 0 0 0 0 0 0 0 0 0 127 0" result="hardAlpha"/>
<feOffset dy="2"/>
<feGaussianBlur stdDeviation="38.5"/>
<feColorMatrix type="matrix" values="0 0 0 0 0 0 0 0 0 0 0 0 0 0 0 0 0 0 0.0240111 0"/>
<feBlend mode="normal" in2="BackgroundImageFix" result="effect1_dropShadow_0_1"/>
<feBlend mode="normal" in="SourceGraphic" in2="effect1_dropShadow_0_1" result="shape"/>
</filter>
<linearGradient id="paint0_linear_0_1" x1="106.991" y1="116.171" x2="734.488" y2="390.959" gradientUnits="userSpaceOnUse">
<stop stop-color="#3EDAD8"/>
<stop offset="1" stop-color="#2AB6D9"/>
</linearGradient>
<clipPath id="clip0_0_1">
<rect width="375" height="423" fill="white"/>
</clipPath>
</defs>
</svg>
